<?xml version="1.0" encoding="UTF-8"?>
<svg id="Layer_1" xmlns="http://www.w3.org/2000/svg" version="1.1" viewBox="0 0 1500 1500">
  <!-- Generator: Adobe Illustrator 29.3.0, SVG Export Plug-In . SVG Version: 2.1.0 Build 146)  -->
  <defs>
    <style>
      .st0 {
        fill: #e8e8e8;
        stroke: #252f33;
        stroke-width: 4px;
      }

      .st0, .st1, .st2, .st3, .st4, .st5, .st6, .st7, .st8, .st9, .st10 {
        stroke-miterlimit: 10;
      }

      .st1, .st2, .st5, .st9, .st10 {
        stroke-width: 24px;
      }

      .st1, .st3, .st4, .st7, .st10 {
        fill: #fff;
      }

      .st1, .st5, .st8, .st9 {
        stroke: #fff;
      }

      .st2 {
        stroke: #000;
      }

      .st3 {
        stroke-width: 20px;
      }

      .st3, .st4, .st6, .st7, .st10 {
        stroke: #001f47;
      }

      .st3, .st5, .st7, .st8 {
        stroke-linecap: round;
      }

      .st4 {
        stroke-width: 16px;
      }

      .st5, .st6, .st8, .st11 {
        fill: #001f47;
      }

      .st6 {
        stroke-width: 6px;
      }

      .st7, .st8 {
        font-family: ArialRoundedMTBold, 'Arial Rounded MT Bold';
        font-size: 1017.4px;
        stroke-width: 36px;
      }

      .st8 {
        display: none;
      }
    </style>
  </defs>
  <rect class="st11" y="0" width="1500" height="1500" rx="176.3" ry="176.3"/>
  <rect class="st10" x="438.6" y="245.3" width="522" height="924" rx="116.1" ry="116.1"/>
  <rect class="st10" x="438.6" y="233.3" width="522" height="924" rx="116.1" ry="116.1"/>
  <rect class="st6" x="476.6" y="317.3" width="446" height="714" rx="116.1" ry="116.1"/>
  <line class="st3" x1="625.7" y1="278.9" x2="773.6" y2="278.9"/>
  <circle class="st0" cx="699.6" cy="1094.3" r="43"/>
  <text/>
  <text class="st8" transform="translate(215.7 1332.6)"><tspan x="0" y="0">3</tspan></text>
  <text/>
  <text/>
  <text/>
  <text/>
  <rect class="st5" x="863.6" y="930.4" width="300.4" height="350" rx="44.8" ry="44.8"/>
  <path class="st4" d="M1095.8,817.3v-487.8c0-46.5-28.2-84.3-63-84.3h-20.3c-34.8,0-63,37.7-63,84.3v487.8c-.9,1.7-1.2,3.8-.5,5.9l.5,1.5v.3c8.4,31.8,13.2,48.8,19.7,59.3l46.3,140.4c2.3,7,12.3,7,14.6,0l65.7-199.3c0-.1.1-.2.2-.3v-.3l.5-1.5c.7-2.1.4-4.2-.5-5.9Z"/>
  <line class="st1" x1="1108.7" y1="978.1" x2="1108.7" y2="891.5"/>
  <line class="st1" x1="922.6" y1="975.2" x2="922.6" y2="891.5"/>
  <line class="st9" x1="911.7" y1="1220.1" x2="1115.9" y2="1220.1"/>
  <line class="st9" x1="911.7" y1="1161.8" x2="1115.9" y2="1161.8"/>
  <line class="st9" x1="911.7" y1="1105.4" x2="1115.9" y2="1105.4"/>
  <line class="st9" x1="911.7" y1="1051.3" x2="1115.9" y2="1051.3"/>
  <path class="st2" d="M996.2-468.8"/>
  <text class="st7" transform="translate(215.3 1333.5)"><tspan x="0" y="0">3</tspan></text>
</svg>