<?xml version="1.0" encoding="UTF-8"?><svg id="a" xmlns="http://www.w3.org/2000/svg" width="1500" height="1968.8" viewBox="0 0 1500 1968.8"><defs><style>.b{fill:#e8e8e8;stroke:#252f33;stroke-width:4px;}.b,.c,.d,.e,.f,.g,.h,.i{stroke-miterlimit:10;}.c,.d,.g{fill:none;}.c,.f{stroke:#fff;}.c,.f,.i{stroke-width:24px;}.j,.e,.i{fill:#fff;}.d{stroke-width:20px;}.d,.e,.g,.h,.i{stroke:#001f47;}.d,.f,.g{stroke-linecap:round;}.e{stroke-width:16px;}.f,.h,.k{fill:#001f47;}.g{stroke-width:36px;}.l{isolation:isolate;}.h{stroke-width:6px;}</style></defs><rect class="k" y="468.8" width="1500" height="1500" rx="176.3" ry="176.3"/><rect class="i" x="438.6" y="714.1" width="522" height="924" rx="116.1" ry="116.1"/><rect class="i" x="438.6" y="702.1" width="522" height="924" rx="116.1" ry="116.1"/><rect class="h" x="476.6" y="786.1" width="446" height="714" rx="116.1" ry="116.1"/><line class="d" x1="625.7" y1="747.7" x2="773.6" y2="747.7"/><circle class="b" cx="699.6" cy="1563.1" r="43"/><g class="l"><g class="l"><path class="j" d="M493.78,1362.3c30.45,0,56.69-8.88,78.7-26.66,22.02-17.77,33.03-43.28,33.03-76.53,0-25.34-8.78-47.14-26.33-65.41s-41.22-27.41-71-27.41c-20.2,0-36.84,2.8-49.91,8.39-13.08,5.59-23.42,12.98-31.03,22.19-7.62,9.2-14.83,21.03-21.61,35.5s-13,28.11-18.62,40.92c-3.31,6.84-9.27,12.2-17.88,16.11s-18.55,5.86-29.8,5.86c-13.25,0-25.41-5.34-36.5-16.06s-16.62-24.97-16.62-42.77,5.2-35.19,15.64-54.14c10.42-18.95,25.64-37,45.67-54.14s44.94-30.91,74.73-41.28,63.08-15.58,99.83-15.58c32.11,0,61.41,4.38,87.89,13.12,26.47,8.75,49.47,21.39,69,37.89s34.25,35.66,44.19,57.44c9.92,21.8,14.89,45.23,14.89,70.33,0,33.02-7.2,61.33-21.59,84.94-14.41,23.61-35,46.64-61.8,69.08,25.81,13.91,47.56,29.8,65.27,47.67s31.02,37.66,39.95,59.34,13.41,45.12,13.41,70.28c0,30.12-6.05,59.27-18.12,87.41s-29.86,53.22-53.36,75.23-51.38,39.23-83.64,51.64c-32.28,12.41-67.94,18.62-107,18.62s-75.33-7.12-106.78-21.34-57.36-32.02-77.72-53.36-35.75-43.44-46.17-66.28c-10.44-22.83-15.64-41.69-15.64-56.59,0-19.19,6.2-34.66,18.62-46.41,12.41-11.75,27.89-17.62,46.42-17.62,9.27,0,18.2,2.72,26.81,8.16s14.23,11.95,16.89,19.53c17.22,45.97,35.67,80.12,55.38,102.44,19.69,22.33,47.42,33.48,83.17,33.48,20.53,0,40.31-5.03,59.34-15.12s34.75-25.06,47.17-44.91c12.41-19.84,18.62-42.83,18.62-68.95,0-38.69-10.59-69.02-31.78-91.02s-50.66-33-88.39-33c-6.62,0-16.89.67-30.8,1.98-13.91,1.33-22.84,1.98-26.81,1.98-18.22,0-32.28-4.55-42.2-13.67-9.94-9.12-14.89-21.81-14.89-38.06s5.95-28.78,17.88-38.56c11.91-9.78,29.62-14.67,53.12-14.67h20.36Z"/></g><g class="l"><path class="g" d="M493.78,1362.3c30.45,0,56.69-8.88,78.7-26.66,22.02-17.77,33.03-43.28,33.03-76.53,0-25.34-8.78-47.14-26.33-65.41s-41.22-27.41-71-27.41c-20.2,0-36.84,2.8-49.91,8.39-13.08,5.59-23.42,12.98-31.03,22.19-7.62,9.2-14.83,21.03-21.61,35.5s-13,28.11-18.62,40.92c-3.31,6.84-9.27,12.2-17.88,16.11s-18.55,5.86-29.8,5.86c-13.25,0-25.41-5.34-36.5-16.06s-16.62-24.97-16.62-42.77,5.2-35.19,15.64-54.14c10.42-18.95,25.64-37,45.67-54.14s44.94-30.91,74.73-41.28,63.08-15.58,99.83-15.58c32.11,0,61.41,4.38,87.89,13.12,26.47,8.75,49.47,21.39,69,37.89s34.25,35.66,44.19,57.44c9.92,21.8,14.89,45.23,14.89,70.33,0,33.02-7.2,61.33-21.59,84.94-14.41,23.61-35,46.64-61.8,69.08,25.81,13.91,47.56,29.8,65.27,47.67s31.02,37.66,39.95,59.34,13.41,45.12,13.41,70.28c0,30.12-6.05,59.27-18.12,87.41s-29.86,53.22-53.36,75.23-51.38,39.23-83.64,51.64c-32.28,12.41-67.94,18.62-107,18.62s-75.33-7.12-106.78-21.34-57.36-32.02-77.72-53.36-35.75-43.44-46.17-66.28c-10.44-22.83-15.64-41.69-15.64-56.59,0-19.19,6.2-34.66,18.62-46.41,12.41-11.75,27.89-17.62,46.42-17.62,9.27,0,18.2,2.72,26.81,8.16s14.23,11.95,16.89,19.53c17.22,45.97,35.67,80.12,55.38,102.44,19.69,22.33,47.42,33.48,83.17,33.48,20.53,0,40.31-5.03,59.34-15.12s34.75-25.06,47.17-44.91c12.41-19.84,18.62-42.83,18.62-68.95,0-38.69-10.59-69.02-31.78-91.02s-50.66-33-88.39-33c-6.62,0-16.89.67-30.8,1.98-13.91,1.33-22.84,1.98-26.81,1.98-18.22,0-32.28-4.55-42.2-13.67-9.94-9.12-14.89-21.81-14.89-38.06s5.95-28.78,17.88-38.56c11.91-9.78,29.62-14.67,53.12-14.67h20.36Z"/></g></g><rect class="f" x="863.6" y="1399.2" width="300.4" height="350" rx="44.8" ry="44.8"/><path class="e" d="M1095.8,1286.1v-487.8c0-46.5-28.2-84.3-63-84.3h-20.3c-34.8,0-63,37.7-63,84.3v487.8c-.9,1.7-1.2,3.8-.5,5.9l.5,1.5v.3c8.4,31.8,13.2,48.8,19.7,59.3l46.3,140.4c2.3,7,12.3,7,14.6,0l65.7-199.3c0-.1.1-.2.2-.3v-.3l.5-1.5c.7-2.1.4-4.2-.5-5.9l-.2-.1Z"/><line class="c" x1="1108.7" y1="1446.9" x2="1108.7" y2="1360.3"/><line class="c" x1="922.6" y1="1444" x2="922.6" y2="1360.3"/><line class="c" x1="911.7" y1="1688.9" x2="1115.9" y2="1688.9"/><line class="c" x1="911.7" y1="1630.6" x2="1115.9" y2="1630.6"/><line class="c" x1="911.7" y1="1574.2" x2="1115.9" y2="1574.2"/><line class="c" x1="911.7" y1="1520.1" x2="1115.9" y2="1520.1"/></svg>