<?xml version="1.0" encoding="utf-8"?>
<!-- Generator: Adobe Illustrator 29.3.1, SVG Export Plug-In . SVG Version: 9.03 Build 55982)  -->
<svg version="1.0" id="Layer_1" xmlns="http://www.w3.org/2000/svg" xmlns:xlink="http://www.w3.org/1999/xlink" x="0px" y="0px"
	 width="1500px" height="1500px" viewBox="0 0 1500 1500" style="enable-background:new 0 0 1500 1500;" xml:space="preserve">
<style type="text/css">
	.st0{fill:#001F47;}
	.st1{fill:#FFFFFF;stroke:#001F47;stroke-width:24;stroke-miterlimit:10;}
	.st2{fill:#001F47;stroke:#001F47;stroke-width:6;stroke-miterlimit:10;}
	.st3{fill:none;stroke:#001F47;stroke-width:20;stroke-linecap:round;stroke-miterlimit:10;}
	.st4{fill:#E8E8E8;stroke:#252F33;stroke-width:4;stroke-miterlimit:10;}
	.st5{enable-background:new    ;}
	.st6{fill:#FFFFFF;}
	.st7{fill:none;stroke:#001F47;stroke-width:36;stroke-linecap:round;stroke-miterlimit:10;}
	.st8{fill:#001F47;stroke:#FFFFFF;stroke-width:24;stroke-linecap:round;stroke-miterlimit:10;}
	.st9{fill:#FFFFFF;stroke:#001F47;stroke-width:16;stroke-miterlimit:10;}
	.st10{fill:none;stroke:#FFFFFF;stroke-width:24;stroke-miterlimit:10;}
	.st11{stroke:#000000;stroke-width:24;stroke-miterlimit:10;}
</style>
<path class="st0" d="M176.3,0h1147.4c97.4,0,176.3,78.9,176.3,176.3v1147.4c0,97.4-78.9,176.3-176.3,176.3H176.3
	C78.9,1500,0,1421.1,0,1323.7V176.3C0,78.9,78.9,0,176.3,0z"/>
<path class="st1" d="M554.7,245.3h289.8c64.1,0,116.1,52,116.1,116.1v691.8c0,64.1-52,116.1-116.1,116.1H554.7
	c-64.1,0-116.1-52-116.1-116.1V361.4C438.6,297.3,490.6,245.3,554.7,245.3z"/>
<path class="st1" d="M554.7,233.3h289.8c64.1,0,116.1,52,116.1,116.1v691.8c0,64.1-52,116.1-116.1,116.1H554.7
	c-64.1,0-116.1-52-116.1-116.1V349.4C438.6,285.3,490.6,233.3,554.7,233.3z"/>
<path class="st2" d="M592.7,317.3h213.8c64.1,0,116.1,52,116.1,116.1v481.8c0,64.1-52,116.1-116.1,116.1H592.7
	c-64.1,0-116.1-52-116.1-116.1V433.4C476.6,369.3,528.6,317.3,592.7,317.3z"/>
<line class="st3" x1="625.7" y1="278.9" x2="773.6" y2="278.9"/>
<circle class="st4" cx="699.6" cy="1094.3" r="43"/>
<g class="st5">
	<path class="st6" d="M493.8,893.5c30.5,0,56.7-8.9,78.7-26.7c22-17.8,33-43.3,33-76.5c0-25.3-8.8-47.1-26.3-65.4
		s-41.2-27.4-71-27.4c-20.2,0-36.8,2.8-49.9,8.4c-13.1,5.6-23.4,13-31,22.2c-7.6,9.2-14.8,21-21.6,35.5s-13,28.1-18.6,40.9
		c-3.3,6.8-9.3,12.2-17.9,16.1s-18.5,5.9-29.8,5.9c-13.2,0-25.4-5.3-36.5-16.1s-16.6-25-16.6-42.8c0-17.1,5.2-35.2,15.6-54.1
		c10.4-19,25.6-37,45.7-54.1s44.9-30.9,74.7-41.3s63.1-15.6,99.8-15.6c32.1,0,61.4,4.4,87.9,13.1c26.5,8.8,49.5,21.4,69,37.9
		s34.2,35.7,44.2,57.4c9.9,21.8,14.9,45.2,14.9,70.3c0,33-7.2,61.3-21.6,84.9c-14.4,23.6-35,46.6-61.8,69.1
		c25.8,13.9,47.6,29.8,65.3,47.7s31,37.7,40,59.3s13.4,45.1,13.4,70.3c0,30.1-6,59.3-18.1,87.4s-29.9,53.2-53.4,75.2
		s-51.4,39.2-83.6,51.6c-32.3,12.4-67.9,18.6-107,18.6c-39.7,0-75.3-7.1-106.8-21.3s-57.4-32-77.7-53.4s-35.8-43.4-46.2-66.3
		c-10.4-22.8-15.6-41.7-15.6-56.6c0-19.2,6.2-34.7,18.6-46.4c12.4-11.8,27.9-17.6,46.4-17.6c9.3,0,18.2,2.7,26.8,8.2
		s14.2,12,16.9,19.5c17.2,46,35.7,80.1,55.4,102.4c19.7,22.3,47.4,33.5,83.2,33.5c20.5,0,40.3-5,59.3-15.1s34.8-25.1,47.2-44.9
		c12.4-19.8,18.6-42.8,18.6-69c0-38.7-10.6-69-31.8-91s-50.7-33-88.4-33c-6.6,0-16.9,0.7-30.8,2c-13.9,1.3-22.8,2-26.8,2
		c-18.2,0-32.3-4.5-42.2-13.7c-9.9-9.1-14.9-21.8-14.9-38.1c0-15.9,6-28.8,17.9-38.6c11.9-9.8,29.6-14.7,53.1-14.7H493.8z"/>
</g>
<g class="st5">
	<path class="st7" d="M493.8,893.5c30.5,0,56.7-8.9,78.7-26.7c22-17.8,33-43.3,33-76.5c0-25.3-8.8-47.1-26.3-65.4
		s-41.2-27.4-71-27.4c-20.2,0-36.8,2.8-49.9,8.4c-13.1,5.6-23.4,13-31,22.2c-7.6,9.2-14.8,21-21.6,35.5s-13,28.1-18.6,40.9
		c-3.3,6.8-9.3,12.2-17.9,16.1s-18.5,5.9-29.8,5.9c-13.2,0-25.4-5.3-36.5-16.1s-16.6-25-16.6-42.8c0-17.1,5.2-35.2,15.6-54.1
		c10.4-19,25.6-37,45.7-54.1s44.9-30.9,74.7-41.3s63.1-15.6,99.8-15.6c32.1,0,61.4,4.4,87.9,13.1c26.5,8.8,49.5,21.4,69,37.9
		s34.2,35.7,44.2,57.4c9.9,21.8,14.9,45.2,14.9,70.3c0,33-7.2,61.3-21.6,84.9c-14.4,23.6-35,46.6-61.8,69.1
		c25.8,13.9,47.6,29.8,65.3,47.7s31,37.7,40,59.3s13.4,45.1,13.4,70.3c0,30.1-6,59.3-18.1,87.4s-29.9,53.2-53.4,75.2
		s-51.4,39.2-83.6,51.6c-32.3,12.4-67.9,18.6-107,18.6c-39.7,0-75.3-7.1-106.8-21.3s-57.4-32-77.7-53.4s-35.8-43.4-46.2-66.3
		c-10.4-22.8-15.6-41.7-15.6-56.6c0-19.2,6.2-34.7,18.6-46.4c12.4-11.8,27.9-17.6,46.4-17.6c9.3,0,18.2,2.7,26.8,8.2
		s14.2,12,16.9,19.5c17.2,46,35.7,80.1,55.4,102.4c19.7,22.3,47.4,33.5,83.2,33.5c20.5,0,40.3-5,59.3-15.1s34.8-25.1,47.2-44.9
		c12.4-19.8,18.6-42.8,18.6-69c0-38.7-10.6-69-31.8-91s-50.7-33-88.4-33c-6.6,0-16.9,0.7-30.8,2c-13.9,1.3-22.8,2-26.8,2
		c-18.2,0-32.3-4.5-42.2-13.7c-9.9-9.1-14.9-21.8-14.9-38.1c0-15.9,6-28.8,17.9-38.6c11.9-9.8,29.6-14.7,53.1-14.7H493.8z"/>
</g>
<path class="st8" d="M908.4,930.4h210.8c24.7,0,44.8,20.1,44.8,44.8v260.4c0,24.7-20.1,44.8-44.8,44.8H908.4
	c-24.7,0-44.8-20.1-44.8-44.8V975.2C863.6,950.5,883.7,930.4,908.4,930.4z"/>
<path class="st9" d="M1095.8,817.3V329.5c0-46.5-28.2-84.3-63-84.3h-20.3c-34.8,0-63,37.7-63,84.3v487.8c-0.9,1.7-1.2,3.8-0.5,5.9
	l0.5,1.5v0.3c8.4,31.8,13.2,48.8,19.7,59.3l46.3,140.4c2.3,7,12.3,7,14.6,0l65.7-199.3c0-0.1,0.1-0.2,0.2-0.3v-0.3l0.5-1.5
	c0.7-2.1,0.4-4.2-0.5-5.9L1095.8,817.3z"/>
<line class="st10" x1="1108.7" y1="978.1" x2="1108.7" y2="891.5"/>
<line class="st10" x1="922.6" y1="975.2" x2="922.6" y2="891.5"/>
<line class="st10" x1="911.7" y1="1220.1" x2="1115.9" y2="1220.1"/>
<line class="st10" x1="911.7" y1="1161.8" x2="1115.9" y2="1161.8"/>
<line class="st10" x1="911.7" y1="1105.4" x2="1115.9" y2="1105.4"/>
<line class="st10" x1="911.7" y1="1051.3" x2="1115.9" y2="1051.3"/>
<path class="st11" d="M996.2-468.8"/>
</svg>
