<?xml version="1.0" encoding="UTF-8"?>
<svg id="a" xmlns="http://www.w3.org/2000/svg" version="1.1" viewBox="0 0 1500 1500">
  <!-- Generator: Adobe Illustrator 29.3.1, SVG Export Plug-In . SVG Version: 2.1.0 Build 151)  -->
  <defs>
    <style>
      .st0 {
        fill: #e8e8e8;
        stroke: #252f33;
        stroke-width: 4px;
      }

      .st0, .st1, .st2, .st3, .st4, .st5, .st6, .st7 {
        stroke-miterlimit: 10;
      }

      .st1, .st2, .st5 {
        fill: none;
      }

      .st1, .st4 {
        stroke: #fff;
      }

      .st1, .st4, .st7 {
        stroke-width: 24px;
      }

      .st8, .st3, .st7 {
        fill: #fff;
      }

      .st2 {
        stroke-width: 20px;
      }

      .st2, .st3, .st5, .st6, .st7 {
        stroke: #001f47;
      }

      .st2, .st4, .st5 {
        stroke-linecap: round;
      }

      .st3 {
        stroke-width: 16px;
      }

      .st4, .st6, .st9 {
        fill: #001f47;
      }

      .st5 {
        stroke-width: 36px;
      }

      .st10 {
        isolation: isolate;
      }

      .st6 {
        stroke-width: 6px;
      }
    </style>
  </defs>
  <rect class="st9" width="1500" height="1500" rx="176.3" ry="176.3"/>
  <rect class="st7" x="438.6" y="245.3" width="522" height="924" rx="116.1" ry="116.1"/>
  <rect class="st7" x="438.6" y="233.3" width="522" height="924" rx="116.1" ry="116.1"/>
  <rect class="st6" x="476.6" y="317.3" width="446" height="714" rx="116.1" ry="116.1"/>
  <line class="st2" x1="625.7" y1="278.9" x2="773.6" y2="278.9"/>
  <circle class="st0" cx="699.6" cy="1094.3" r="43"/>
  <g class="st10">
    <g class="st10">
      <path class="st8" d="M493.8,893.5c30.4,0,56.7-8.9,78.7-26.7,22-17.8,33-43.3,33-76.5s-8.8-47.1-26.3-65.4-41.2-27.4-71-27.4-36.8,2.8-49.9,8.4c-13.1,5.6-23.4,13-31,22.2-7.6,9.2-14.8,21-21.6,35.5s-13,28.1-18.6,40.9c-3.3,6.8-9.3,12.2-17.9,16.1s-18.5,5.9-29.8,5.9-25.4-5.3-36.5-16.1-16.6-25-16.6-42.8,5.2-35.2,15.6-54.1c10.4-18.9,25.6-37,45.7-54.1s44.9-30.9,74.7-41.3,63.1-15.6,99.8-15.6,61.4,4.4,87.9,13.1c26.5,8.8,49.5,21.4,69,37.9s34.2,35.7,44.2,57.4c9.9,21.8,14.9,45.2,14.9,70.3s-7.2,61.3-21.6,84.9c-14.4,23.6-35,46.6-61.8,69.1,25.8,13.9,47.6,29.8,65.3,47.7s31,37.7,40,59.3,13.4,45.1,13.4,70.3-6,59.3-18.1,87.4-29.9,53.2-53.4,75.2-51.4,39.2-83.6,51.6c-32.3,12.4-67.9,18.6-107,18.6s-75.3-7.1-106.8-21.3-57.4-32-77.7-53.4-35.8-43.4-46.2-66.3c-10.4-22.8-15.6-41.7-15.6-56.6s6.2-34.7,18.6-46.4c12.4-11.8,27.9-17.6,46.4-17.6s18.2,2.7,26.8,8.2,14.2,11.9,16.9,19.5c17.2,46,35.7,80.1,55.4,102.4,19.7,22.3,47.4,33.5,83.2,33.5s40.3-5,59.3-15.1,34.8-25.1,47.2-44.9c12.4-19.8,18.6-42.8,18.6-68.9,0-38.7-10.6-69-31.8-91s-50.7-33-88.4-33-16.9.7-30.8,2c-13.9,1.3-22.8,2-26.8,2-18.2,0-32.3-4.6-42.2-13.7-9.9-9.1-14.9-21.8-14.9-38.1s6-28.8,17.9-38.6c11.9-9.8,29.6-14.7,53.1-14.7h20.4Z"/>
    </g>
    <g class="st10">
      <path class="st5" d="M493.8,893.5c30.4,0,56.7-8.9,78.7-26.7,22-17.8,33-43.3,33-76.5s-8.8-47.1-26.3-65.4-41.2-27.4-71-27.4-36.8,2.8-49.9,8.4c-13.1,5.6-23.4,13-31,22.2-7.6,9.2-14.8,21-21.6,35.5s-13,28.1-18.6,40.9c-3.3,6.8-9.3,12.2-17.9,16.1s-18.5,5.9-29.8,5.9-25.4-5.3-36.5-16.1-16.6-25-16.6-42.8,5.2-35.2,15.6-54.1c10.4-18.9,25.6-37,45.7-54.1s44.9-30.9,74.7-41.3,63.1-15.6,99.8-15.6,61.4,4.4,87.9,13.1c26.5,8.8,49.5,21.4,69,37.9s34.2,35.7,44.2,57.4c9.9,21.8,14.9,45.2,14.9,70.3s-7.2,61.3-21.6,84.9c-14.4,23.6-35,46.6-61.8,69.1,25.8,13.9,47.6,29.8,65.3,47.7s31,37.7,40,59.3,13.4,45.1,13.4,70.3-6,59.3-18.1,87.4-29.9,53.2-53.4,75.2-51.4,39.2-83.6,51.6c-32.3,12.4-67.9,18.6-107,18.6s-75.3-7.1-106.8-21.3-57.4-32-77.7-53.4-35.8-43.4-46.2-66.3c-10.4-22.8-15.6-41.7-15.6-56.6s6.2-34.7,18.6-46.4c12.4-11.8,27.9-17.6,46.4-17.6s18.2,2.7,26.8,8.2,14.2,11.9,16.9,19.5c17.2,46,35.7,80.1,55.4,102.4,19.7,22.3,47.4,33.5,83.2,33.5s40.3-5,59.3-15.1,34.8-25.1,47.2-44.9c12.4-19.8,18.6-42.8,18.6-68.9,0-38.7-10.6-69-31.8-91s-50.7-33-88.4-33-16.9.7-30.8,2c-13.9,1.3-22.8,2-26.8,2-18.2,0-32.3-4.6-42.2-13.7-9.9-9.1-14.9-21.8-14.9-38.1s6-28.8,17.9-38.6c11.9-9.8,29.6-14.7,53.1-14.7h20.4Z"/>
    </g>
  </g>
  <rect class="st4" x="863.6" y="930.4" width="300.4" height="350" rx="44.8" ry="44.8"/>
  <path class="st3" d="M1095.8,817.3v-487.8c0-46.5-28.2-84.3-63-84.3h-20.3c-34.8,0-63,37.7-63,84.3v487.8c-.9,1.7-1.2,3.8-.5,5.9l.5,1.5v.3c8.4,31.8,13.2,48.8,19.7,59.3l46.3,140.4c2.3,7,12.3,7,14.6,0l65.7-199.3c0,0,0-.2.2-.3v-.3l.5-1.5c.7-2.1.4-4.2-.5-5.9h-.2Z"/>
  <line class="st1" x1="1108.7" y1="978.1" x2="1108.7" y2="891.5"/>
  <line class="st1" x1="922.6" y1="975.2" x2="922.6" y2="891.5"/>
  <line class="st1" x1="911.7" y1="1220.1" x2="1115.9" y2="1220.1"/>
  <line class="st1" x1="911.7" y1="1161.8" x2="1115.9" y2="1161.8"/>
  <line class="st1" x1="911.7" y1="1105.4" x2="1115.9" y2="1105.4"/>
  <line class="st1" x1="911.7" y1="1051.3" x2="1115.9" y2="1051.3"/>
</svg>